<?xml version="1.0" encoding="UTF-8"?>
<svg width="120px" height="98px" viewBox="0 0 120 98" version="1.1" xmlns="http://www.w3.org/2000/svg" xmlns:xlink="http://www.w3.org/1999/xlink">
    <title>Slice 1</title>
    <g id="Page-1" stroke="none" stroke-width="1" fill="none" fill-rule="evenodd">
        <g id="portfolio" fill-rule="nonzero">
            <path d="M109.75,0 L9.75,0 C4.36773667,0.00606204402 0.00606204402,4.36773667 7.10542736e-15,9.75 L7.10542736e-15,86.75 C0.0066132895,92.6843196 4.81568041,97.4933867 10.75,97.5 L108.75,97.5 C114.68432,97.4933867 119.493387,92.6843196 119.5,86.75 L119.5,9.75 C119.493938,4.36773667 115.132263,0.00606204402 109.75,0 Z M116,9.75 L116,21.433 L48.638,21.433 L57.12,3.5 L109.75,3.5 C113.200181,3.50385772 115.996142,6.2998195 116,9.75 Z M9.75,3.5 L53.25,3.5 L44.766,21.433 L3.5,21.433 L3.5,9.75 C3.50385772,6.2998195 6.2998195,3.50385772 9.75,3.5 Z M108.75,94 L10.75,94 C6.74776324,93.995591 3.50440897,90.7522368 3.5,86.75 L3.5,24.933 L116,24.933 L116,86.75 C115.995591,90.7522368 112.752237,93.995591 108.75,94 L108.75,94 Z" id="Shape" fill="#24899E"></path>
            <path d="M17.32,18.217 C20.4956373,18.217 23.07,15.6426373 23.07,12.467 C23.07,9.29136269 20.4956373,6.717 17.32,6.717 C14.1443627,6.717 11.57,9.29136269 11.57,12.467 C11.5733071,15.6412665 14.1457335,18.2136929 17.32,18.217 Z M17.32,10.217 C18.5626407,10.217 19.57,11.2243593 19.57,12.467 C19.57,13.7096407 18.5626407,14.717 17.32,14.717 C16.0773593,14.717 15.07,13.7096407 15.07,12.467 C15.0716526,11.2250445 16.0780445,10.2186526 17.32,10.217 L17.32,10.217 Z" id="Shape" fill="#B92502"></path>
            <path d="M33.376,18.217 C36.5516373,18.217 39.126,15.6426373 39.126,12.467 C39.126,9.29136269 36.5516373,6.717 33.376,6.717 C30.2003627,6.717 27.626,9.29136269 27.626,12.467 C27.6293071,15.6412665 30.2017335,18.2136929 33.376,18.217 Z M33.376,10.217 C34.6186407,10.217 35.626,11.2243593 35.626,12.467 C35.626,13.7096407 34.6186407,14.717 33.376,14.717 C32.1333593,14.717 31.126,13.7096407 31.126,12.467 C31.1276526,11.2250445 32.1340445,10.2186526 33.376,10.217 L33.376,10.217 Z" id="Shape" fill="#1C7911"></path>
            <path d="M63.272,14.217 L108.017,14.217 C108.983498,14.217 109.767,13.4334983 109.767,12.467 C109.767,11.5005017 108.983498,10.717 108.017,10.717 L63.272,10.717 C62.3055017,10.717 61.522,11.5005017 61.522,12.467 C61.522,13.4334983 62.3055017,14.217 63.272,14.217 Z" id="Path" fill="#8AAC12"></path>
            <path d="M105.817,35.7169997 L59.75,35.7169997 C58.7835017,35.7169997 58,36.5005017 58,37.467 L58,48.467 C58,49.4334983 58.7835017,50.2169997 59.75,50.2169997 L105.817,50.2169997 C106.28121,50.2172655 106.726484,50.0329763 107.05473,49.70473 C107.382976,49.3764838 107.567,48.9312102 107.567,48.467 L107.567,37.467 C107.567,37.0027898 107.382976,36.5575162 107.05473,36.22927 C106.726484,35.9010237 106.28121,35.7167345 105.817,35.7169997 Z M104.067,46.717 L61.5,46.717 L61.5,39.217 L104.067,39.217 L104.067,46.717 Z" id="Shape" fill="#B92929"></path>
            <path d="M105.817,57.717 L59.75,57.717 C58.7835017,57.717 58,58.5005017 58,59.467 C58,60.4334983 58.7835017,61.217 59.75,61.217 L105.817,61.217 C106.783498,61.217 107.567,60.4334983 107.567,59.467 C107.567,58.5005017 106.783498,57.717 105.817,57.717 L105.817,57.717 Z" id="Path" fill="#C52E2E"></path>
            <path d="M105.817,68.717 L59.75,68.717 C58.7835017,68.717 58,69.5005017 58,70.467 C58,71.4334983 58.7835017,72.217 59.75,72.217 L105.817,72.217 C106.783498,72.217 107.567,71.4334983 107.567,70.467 C107.567,69.5005017 106.783498,68.717 105.817,68.717 L105.817,68.717 Z" id="Path" fill="#BC2828"></path>
            <path d="M105.817,79.717 L59.75,79.717 C58.7835017,79.717 58,80.5005017 58,81.467 C58,82.4334983 58.7835017,83.217 59.75,83.217 L105.817,83.217 C106.783498,83.217 107.567,82.4334983 107.567,81.467 C107.567,80.5005017 106.783498,79.717 105.817,79.717 L105.817,79.717 Z" id="Path" fill="#A62424"></path>
            <path d="M38.4833636,54.7260831 C39.795912,51.5581037 39.0708172,47.9114007 36.6462049,45.4865024 C34.2215925,43.061604 30.5749751,42.336079 27.4068409,43.6482537 C24.2387066,44.9604284 22.173,48.0518781 22.173,51.481 C22.1779595,56.160824 25.9701767,59.9534885 30.65,59.959 C34.0791219,59.9594045 37.1708152,57.8940626 38.4833636,54.7260831 Z M30.65,46.5039999 C32.663595,46.5035955 34.4791246,47.716298 35.2498809,49.5765399 C36.0206372,51.4367817 35.5948042,53.5781507 34.1709775,55.0019775 C32.7471507,56.4258042 30.6057817,56.8516372 28.7455399,56.0808809 C26.885298,55.3101246 25.6725955,53.494595 25.6729999,51.481 C25.6757561,48.7334212 27.9024212,46.5067561 30.65,46.5039999 Z" id="Shape" fill="#31838B"></path>
            <path d="M49.365,72.04 L49.365,37.467 C49.3652655,37.0027898 49.1809763,36.5575162 48.85273,36.22927 C48.5244838,35.9010237 48.0792102,35.7169997 47.615,35.7169997 L13.683,35.7169997 C13.2187898,35.7169997 12.7735162,35.9010237 12.44527,36.22927 C12.1170237,36.5575162 11.9329997,37.0027898 11.9329997,37.467 L11.9329997,81.467 C11.9329997,81.9312102 12.1170237,82.3764838 12.44527,82.70473 C12.7735162,83.0329763 13.2187898,83.2169997 13.683,83.2169997 L47.615,83.2169997 C48.0792102,83.2169997 48.5244838,83.0329763 48.85273,82.70473 C49.1809763,82.3764838 49.3652655,81.9312102 49.365,81.467 L49.365,72.099 C49.3657494,72.079346 49.3657494,72.059654 49.365,72.04 Z M45.865,39.217 L45.865,68.737 C41.2595284,66.0203872 35.9965432,64.6204989 30.65,64.69 C25.3026853,64.6204342 20.038953,66.0206832 15.433,68.738 L15.433,39.217 L45.865,39.217 Z M15.433,79.717 L15.433,73.006 C19.233,69.948 24.716,68.19 30.65,68.19 C36.584,68.19 42.064,69.95 45.865,73.004 L45.865,79.717 L15.433,79.717 Z" id="Shape" fill="#1F90A2"></path>
        </g>
    </g>
</svg>